<svg width="249" height="248" viewBox="0 0 249 248" fill="none" xmlns="http://www.w3.org/2000/svg">
<path d="M153.884 122.385C153.615 122.406 153.349 122.318 153.144 122.142C152.939 121.966 152.813 121.716 152.793 121.447C152.773 121.177 152.86 120.911 153.036 120.707C153.212 120.502 153.463 120.376 153.732 120.355C154.815 120.124 155.771 119.493 156.411 118.589C157.284 117.29 157.426 115.433 156.899 113.068C155.153 105.577 147.226 106.369 146.881 106.409C146.611 106.455 146.335 106.392 146.112 106.234C145.89 106.076 145.739 105.836 145.693 105.567C145.647 105.298 145.71 105.021 145.868 104.799C146.026 104.576 146.266 104.425 146.535 104.379L175.727 97.4875C175.861 97.4521 176.002 97.4465 176.138 97.4711C176.275 97.4956 176.405 97.5497 176.519 97.6296C176.854 97.8428 184.639 103.04 184.639 109.292C184.639 112.225 183.015 114.854 179.736 117.087C179.514 117.235 179.242 117.29 178.98 117.239C178.718 117.189 178.486 117.037 178.335 116.816C178.185 116.596 178.127 116.325 178.174 116.062C178.222 115.799 178.371 115.566 178.589 115.412C181.269 113.575 182.649 111.525 182.649 109.322C182.649 104.816 177.229 100.614 175.788 99.5784L152.331 105.12C153.992 105.669 155.477 106.65 156.633 107.963C157.789 109.276 158.575 110.873 158.908 112.591C159.599 115.544 159.324 117.95 158.106 119.696C157.144 121.06 155.687 121.995 154.046 122.304L153.884 122.385Z" fill="#4B4D4F"/>
<path d="M73.4759 43.0734L34.9059 58.2984C34.9059 58.2984 37.5449 26.0924 40.0824 23.7884C40.7646 23.2568 41.3753 22.6393 41.8992 21.9512C42.2999 21.2544 42.5586 20.4851 42.6605 19.6878C43.1047 17.193 43.2207 14.6509 43.0056 12.126C43.0234 11.4136 42.7776 10.7196 42.3154 10.1772C41.6991 9.74287 40.9412 9.55792 40.194 9.65958C37.6613 9.51449 35.1292 9.95561 32.7947 10.9486C29.8207 12.4711 29.8715 13.8008 28.5317 16.8661C26.3697 21.8294 21.4267 45.6718 20.0158 54.9184C19.5388 58.2273 16.0675 73.7365 19.7215 76.1522C25.7303 80.131 79.2817 56.1669 79.2817 56.1669" fill="white"/>
<path d="M21.8428 77.0049C21.035 77.0732 20.2245 76.9076 19.5083 76.5278C16.5242 74.5587 17.6204 65.921 19.2444 56.8774C19.4068 56.0045 19.5387 55.3041 19.5996 54.8474C21.0409 45.0527 25.9941 21.6163 28.1459 16.6834C28.4098 16.0947 28.6128 15.5669 28.7955 15.1C29.5872 13.07 30.0744 11.8419 32.6221 10.5325C35.0202 9.49485 37.6248 9.02255 40.2346 9.1521C41.0982 9.04974 41.9686 9.27821 42.6706 9.79155C43.225 10.4098 43.5259 11.2145 43.513 12.0449C43.7248 14.6107 43.6054 17.1931 43.1578 19.7284C43.0414 20.5853 42.7623 21.4122 42.3356 22.1644C41.9303 22.7381 41.445 23.2508 40.8943 23.6869L40.4376 24.0929C38.7121 25.6865 36.5501 44.7177 35.4742 57.5879L73.3033 42.637C73.3616 42.6048 73.4261 42.5855 73.4924 42.5803C73.5588 42.5752 73.6255 42.5842 73.6881 42.607C73.7506 42.6297 73.8076 42.6655 73.8552 42.7121C73.9028 42.7586 73.9399 42.8148 73.964 42.8768C73.9881 42.9389 73.9986 43.0054 73.9949 43.0718C73.9912 43.1383 73.9733 43.2032 73.9424 43.2622C73.9116 43.3212 73.8685 43.3729 73.816 43.4138C73.7636 43.4548 73.7029 43.4841 73.6382 43.4997L35.0682 58.7247C34.9945 58.7521 34.9152 58.7609 34.8373 58.7503C34.7594 58.7397 34.6853 58.71 34.6216 58.6638C34.5605 58.6161 34.5119 58.5542 34.48 58.4834C34.4482 58.4127 34.4341 58.3352 34.4389 58.2578C34.713 54.9387 37.1591 25.7778 39.7575 23.4027L40.2346 22.9764C40.7156 22.5963 41.1424 22.1524 41.5033 21.6569C41.8583 21.0039 42.0921 20.2921 42.1935 19.5558C42.6279 17.0976 42.7439 14.5936 42.5386 12.1057C42.5495 11.5111 42.356 10.9307 41.9905 10.4615C41.4576 10.121 40.8197 9.98403 40.194 10.0757C37.7331 9.94373 35.2747 10.3778 33.0078 11.3445C30.7646 12.5016 30.3789 13.476 29.6177 15.4045C29.435 15.8815 29.2218 16.4195 28.9579 17.0183C26.9279 21.7482 21.8529 45.2658 20.4827 54.9489C20.4116 55.4259 20.2797 56.1364 20.1173 56.9789C19.2951 61.5667 17.0723 73.7771 19.9752 75.6853C24.7254 78.8217 64.2596 62.2975 79.0888 55.6594C79.1447 55.6339 79.2052 55.6198 79.2666 55.6177C79.3281 55.6157 79.3893 55.6258 79.4469 55.6475C79.5044 55.6692 79.5571 55.702 79.6019 55.7441C79.6467 55.7862 79.6827 55.8368 79.7079 55.8928C79.7332 55.9481 79.7472 56.0078 79.7491 56.0685C79.751 56.1292 79.7408 56.1897 79.7191 56.2464C79.6973 56.3031 79.6645 56.3549 79.6225 56.3987C79.5805 56.4426 79.5302 56.4777 79.4745 56.5018C77.4546 57.4762 33.6574 77.0049 21.8428 77.0049Z" fill="#231F20"/>
<path d="M116.948 63.7287C119.922 67.7278 129.128 71.5747 135.401 74.4674C151.712 82.0292 172.266 88.1801 175.575 90.3014C178.884 92.4228 182.193 99.9947 181.482 101.649C180.772 103.304 175.098 107.323 174.154 105.435C173.21 103.547 166.825 93.9453 165.648 93.6611C151.409 93.7406 137.34 90.5713 124.51 84.3941C103.195 73.9904 99.5715 69.3112 99.5715 69.3112C99.5715 69.3112 112.178 57.2733 116.948 63.7287Z" fill="white"/>
<path d="M175.108 106.409C174.832 106.431 174.557 106.372 174.315 106.238C174.073 106.104 173.876 105.903 173.748 105.658C172.733 103.578 166.643 94.5542 165.536 94.1279C165.425 94.1279 164.805 94.1279 164.166 94.1279C150.369 94.0369 136.768 90.8602 124.358 84.8305C103.225 74.4978 99.4091 69.8187 99.2568 69.6055C99.1812 69.5202 99.1394 69.41 99.1394 69.296C99.1394 69.1819 99.1812 69.0718 99.2568 68.9864C99.6019 68.6616 107.762 60.8664 113.599 61.384C114.331 61.4322 115.044 61.6386 115.689 61.9891C116.334 62.3396 116.895 62.8257 117.334 63.414C119.871 66.8447 127.261 70.2146 133.209 72.9145L135.604 74.0208C144.942 78.3447 155.823 82.2626 163.76 85.1249C169.921 87.3477 174.377 88.9514 175.839 89.8852C179.188 92.037 182.801 99.751 181.929 101.801C181.309 103.263 177.371 106.298 175.189 106.359L175.108 106.409ZM100.241 69.3619C101.449 70.5597 106.879 75.2692 124.723 83.9982C137.03 89.9436 150.509 93.0646 164.176 93.1332C164.705 93.1137 165.235 93.1374 165.76 93.2043C167.272 93.5595 173.768 103.598 174.58 105.212C174.58 105.293 174.681 105.465 175.148 105.455C176.935 105.455 180.558 102.644 181.066 101.456C181.573 100.269 178.62 92.7983 175.331 90.6871C173.961 89.804 169.322 88.1293 163.445 86.0181C155.488 83.1456 144.587 79.2277 135.218 74.8531L132.823 73.7467C126.733 70.9961 119.273 67.5756 116.583 63.9622C116.234 63.4694 115.78 63.0607 115.253 62.7657C114.726 62.4707 114.14 62.2969 113.538 62.257C108.727 61.922 101.825 67.9105 100.231 69.3619H100.241Z" fill="#231F20"/>
<path d="M125.454 67.4739C122.409 66.5604 119.861 62.6019 118.034 60.2369C115.294 56.6946 113.193 52.7767 110.605 49.1938C104.961 41.358 95.2476 37.1254 85.6559 37.0138C65.7517 36.8311 41.6658 50.7061 41.6658 51.3659L44.3758 76.6698L59.8647 69.9099C62.4598 83.7426 63.3698 97.8387 62.5748 111.89C68.0152 111.657 102.566 100.725 102.566 100.725C103.652 95.5082 104.971 82.6482 105.996 76.3044L115.04 84.739L125.454 67.4739Z" fill="#6E8DFD"/>
<path d="M122.094 196.105C121.95 196.105 121.808 196.074 121.677 196.015C121.545 195.955 121.428 195.868 121.333 195.76C121.156 195.558 121.066 195.294 121.083 195.025C121.1 194.757 121.223 194.507 121.425 194.329L140.973 177.003C141.071 176.906 141.188 176.83 141.316 176.779C141.444 176.729 141.581 176.705 141.719 176.709C141.857 176.713 141.992 176.745 142.117 176.804C142.242 176.862 142.354 176.945 142.445 177.048C142.537 177.15 142.607 177.271 142.651 177.401C142.694 177.532 142.711 177.67 142.7 177.808C142.688 177.945 142.649 178.078 142.584 178.2C142.52 178.322 142.431 178.429 142.323 178.515L122.774 195.841C122.588 196.01 122.346 196.104 122.094 196.105Z" fill="#4B4D4F"/>
<path d="M123.505 164.995C123.505 164.995 120.785 173.267 121.313 173.278C125.434 173.278 143.643 177.551 149.733 175.084C155.823 172.618 136.101 165.878 136.101 165.878L123.505 164.995Z" fill="#231F20"/>
<path d="M144.028 176.302C138.625 176.099 133.243 175.519 127.92 174.567C125.733 174.176 123.528 173.894 121.313 173.724C121.234 173.719 121.157 173.698 121.087 173.661C121.017 173.624 120.955 173.573 120.907 173.511C120.765 173.308 120.45 172.871 123.079 164.853C123.109 164.758 123.17 164.675 123.253 164.62C123.336 164.565 123.436 164.539 123.536 164.548L136.091 165.432H136.203C138.71 166.294 151.205 170.72 151.296 173.836C151.296 174.512 150.819 175.061 149.865 175.48C147.985 176.103 146.007 176.381 144.028 176.302ZM121.698 172.841C123.028 172.912 125.281 173.257 128.052 173.683C134.944 174.698 145.368 176.363 149.52 174.698C149.926 174.536 150.403 174.262 150.393 173.907C150.393 172.09 141.938 168.405 135.959 166.355L123.779 165.492C122.965 167.905 122.274 170.358 121.709 172.841H121.698Z" fill="#231F20"/>
<path d="M117.182 105.953C117.182 105.953 152.778 119.787 153.844 125.816C154.909 131.845 136.061 165.878 136.061 165.878L123.505 164.995C122.612 170.162 133.32 130.292 133.513 130.059C117.974 128.821 94.9229 117.361 94.9229 117.361" fill="white"/>
<path d="M136.061 166.345L123.942 165.482C123.708 165.98 123.576 165.949 123.394 165.909C122.927 165.797 123.008 165.33 123.079 164.894C123.093 164.817 123.126 164.745 123.176 164.684C123.226 164.624 123.29 164.577 123.363 164.549C124.378 161.504 127.829 148.918 130.204 140.29C131.96 133.916 132.64 131.45 132.934 130.455C117.486 128.993 94.9329 117.869 94.6995 117.757C94.6395 117.733 94.5851 117.697 94.5398 117.651C94.4945 117.605 94.4592 117.55 94.4363 117.49C94.4133 117.429 94.4031 117.365 94.4063 117.3C94.4096 117.236 94.4262 117.173 94.4551 117.115C94.4839 117.057 94.5245 117.006 94.5742 116.965C94.6239 116.923 94.6816 116.893 94.7437 116.875C94.8057 116.857 94.8709 116.852 94.9349 116.861C94.9989 116.869 95.0604 116.891 95.1156 116.925C95.3389 117.037 118.308 128.364 133.584 129.582C133.67 129.588 133.752 129.618 133.822 129.668C133.892 129.718 133.947 129.787 133.98 129.866C134.005 129.925 134.018 129.989 134.018 130.054C134.018 130.118 134.005 130.182 133.98 130.242C133.828 130.668 132.559 135.246 131.107 140.534C126.784 156.256 125.109 162.285 124.307 164.559L135.837 165.371C142.364 153.566 154.239 130.485 153.427 125.877C152.615 121.269 126.845 110.206 117.019 106.359C116.961 106.339 116.908 106.307 116.863 106.265C116.818 106.224 116.782 106.173 116.757 106.117C116.732 106.061 116.719 106 116.719 105.939C116.719 105.877 116.731 105.816 116.755 105.76C116.801 105.646 116.889 105.555 117.001 105.505C117.113 105.456 117.24 105.453 117.354 105.496C117.446 105.496 126.367 109.008 135.31 113.18C153.58 121.706 154.118 124.72 154.3 125.715C155.376 131.805 137.238 164.691 136.467 166.081C136.43 166.158 136.372 166.224 136.301 166.27C136.229 166.317 136.146 166.343 136.061 166.345Z" fill="#231F20"/>
<path d="M198.615 245.18C188.705 245.182 179.018 242.245 170.777 236.741C162.537 231.237 156.114 223.412 152.32 214.257C148.527 205.102 147.534 195.028 149.467 185.308C151.4 175.589 156.171 166.661 163.179 159.654C170.186 152.646 179.114 147.874 188.833 145.942C198.553 144.009 208.627 145.002 217.782 148.795C226.937 152.588 234.762 159.011 240.266 167.252C245.771 175.492 248.707 185.18 248.705 195.09C248.689 208.37 243.407 221.101 234.017 230.491C224.626 239.882 211.895 245.164 198.615 245.18ZM198.615 150.065C189.71 150.063 181.003 152.702 173.598 157.648C166.192 162.594 160.419 169.625 157.01 177.853C153.601 186.08 152.707 195.133 154.444 203.868C156.18 212.603 160.467 220.626 166.764 226.924C173.06 233.222 181.083 237.511 189.817 239.25C198.552 240.988 207.605 240.097 215.833 236.689C224.061 233.282 231.094 227.51 236.042 220.106C240.99 212.701 243.63 203.996 243.63 195.09C243.617 183.154 238.87 171.711 230.432 163.271C221.993 154.83 210.551 150.081 198.615 150.065Z" fill="#6E8DFD"/>
<path d="M198.615 240.877C189.56 240.877 180.707 238.191 173.178 233.16C165.648 228.129 159.779 220.978 156.314 212.612C152.848 204.245 151.942 195.039 153.708 186.157C155.475 177.276 159.836 169.117 166.239 162.714C172.643 156.31 180.801 151.95 189.683 150.183C198.564 148.416 207.771 149.323 216.137 152.789C224.503 156.254 231.654 162.123 236.686 169.652C241.717 177.182 244.402 186.034 244.402 195.09C244.388 207.229 239.56 218.867 230.976 227.451C222.393 236.035 210.755 240.863 198.615 240.877ZM198.615 151.333C189.961 151.333 181.501 153.9 174.305 158.708C167.11 163.516 161.501 170.349 158.189 178.345C154.878 186.34 154.011 195.138 155.699 203.626C157.388 212.114 161.555 219.911 167.675 226.031C173.794 232.15 181.591 236.317 190.079 238.006C198.567 239.694 207.365 238.828 215.36 235.516C223.356 232.204 230.19 226.596 234.998 219.4C239.806 212.204 242.372 203.744 242.372 195.09C242.361 183.488 237.748 172.365 229.544 164.161C221.34 155.958 210.217 151.344 198.615 151.333Z" fill="#231F20"/>
<path d="M198.615 196.105C198.408 196.106 198.205 196.043 198.035 195.925C197.864 195.807 197.734 195.64 197.661 195.445L161.913 102.624C161.817 102.372 161.826 102.092 161.936 101.847C162.046 101.601 162.25 101.41 162.501 101.314C162.753 101.219 163.033 101.227 163.278 101.337C163.524 101.448 163.715 101.651 163.811 101.903L199.539 194.725C199.635 194.975 199.628 195.253 199.52 195.499C199.411 195.744 199.21 195.936 198.96 196.034C198.85 196.075 198.733 196.099 198.615 196.105Z" fill="#4B4D4F"/>
<path d="M50.1004 245.18C40.1911 245.18 30.5043 242.242 22.2651 236.736C14.0259 231.231 7.6044 223.405 3.81272 214.25C0.0210376 205.095 -0.970528 195.021 0.96343 185.302C2.89739 175.583 7.67 166.656 14.6777 159.65C21.6854 152.644 30.6134 147.873 40.3325 145.941C50.0517 144.009 60.1256 145.003 69.2801 148.796C78.4345 152.59 86.2584 159.013 91.7623 167.253C97.2662 175.493 100.203 185.181 100.201 195.09C100.185 208.372 94.9008 221.104 85.5083 230.495C76.1159 239.886 63.382 245.167 50.1004 245.18ZM50.1004 150.065C41.1952 150.065 32.49 152.705 25.0857 157.653C17.6813 162.6 11.9102 169.632 8.50238 177.86C5.09451 186.087 4.20286 195.14 5.94018 203.874C7.67749 212.608 11.9657 220.631 18.2627 226.928C24.5596 233.225 32.5823 237.513 41.3164 239.25C50.0505 240.988 59.1036 240.096 67.3309 236.688C75.5582 233.28 82.5902 227.509 87.5377 220.105C92.4851 212.7 95.1258 203.995 95.1258 195.09C95.1124 183.153 90.3643 171.708 81.9233 163.267C73.4824 154.826 62.0378 150.078 50.1004 150.065Z" fill="#6E8DFD"/>
<path d="M50.1004 240.877C41.0468 240.866 32.1995 238.173 24.6766 233.135C17.1537 228.098 11.293 220.944 7.83528 212.577C4.37758 204.209 3.47808 195.005 5.2505 186.126C7.02291 177.248 11.3877 169.094 17.7931 162.696C24.1985 156.298 32.3569 151.942 41.2373 150.179C50.1176 148.417 59.3212 149.326 67.6847 152.793C76.0481 156.26 83.196 162.129 88.2249 169.657C93.2537 177.186 95.9378 186.036 95.9378 195.09C95.9217 207.237 91.0856 218.881 82.4915 227.466C73.8973 236.051 62.2476 240.874 50.1004 240.877ZM50.1004 151.333C41.4483 151.343 32.9934 153.918 25.8044 158.732C18.6153 163.546 13.0148 170.384 9.71075 178.38C6.40669 186.376 5.5474 195.173 7.24149 203.657C8.93558 212.142 13.107 219.934 19.2285 226.048C25.35 232.163 33.1468 236.325 41.6333 238.009C50.1199 239.694 58.9153 238.824 66.9078 235.511C74.9004 232.198 81.7312 226.589 86.537 219.394C91.3428 212.2 93.9078 203.742 93.9078 195.09C93.8971 183.479 89.2766 172.348 81.062 164.143C72.8474 155.938 61.7109 151.331 50.1004 151.333Z" fill="#231F20"/>
<path d="M122.094 196.105H50.1005C49.9161 196.105 49.7351 196.055 49.577 195.96C49.4188 195.866 49.2895 195.729 49.2029 195.567C49.1163 195.404 49.0757 195.221 49.0854 195.036C49.0951 194.852 49.1548 194.674 49.2581 194.522L89.8581 133.094C89.94 132.971 90.0478 132.867 90.1741 132.79C90.3003 132.712 90.4419 132.664 90.5889 132.647L171.312 123.441C171.511 123.414 171.714 123.447 171.895 123.535C172.076 123.624 172.226 123.764 172.327 123.938C172.432 124.102 172.488 124.292 172.488 124.487C172.488 124.681 172.432 124.871 172.327 125.035L122.927 195.679C122.832 195.811 122.707 195.919 122.563 195.993C122.418 196.068 122.257 196.106 122.094 196.105ZM51.9884 194.075H121.567L169.272 125.715L91.2588 134.616L51.9884 194.075Z" fill="#4B4D4F"/>
<path d="M102.231 212.994C102.084 212.995 101.939 212.963 101.806 212.901C101.673 212.84 101.555 212.751 101.459 212.639C101.373 212.538 101.307 212.421 101.266 212.294C101.224 212.167 101.208 212.033 101.219 211.901C101.229 211.768 101.266 211.638 101.326 211.519C101.386 211.4 101.47 211.295 101.571 211.208L120.856 194.826L78.9873 110.246C78.8676 110.005 78.8485 109.727 78.9342 109.471C79.0198 109.216 79.2032 109.006 79.444 108.886C79.685 108.766 79.9636 108.747 80.2186 108.833C80.4736 108.918 80.6842 109.102 80.8041 109.343L123.008 194.603C123.109 194.806 123.139 195.038 123.093 195.261C123.047 195.483 122.928 195.684 122.754 195.831L102.891 212.72C102.711 212.889 102.477 212.986 102.231 212.994Z" fill="#4B4D4F"/>
<path d="M122.094 206.549C119.634 206.553 117.228 205.828 115.181 204.464C113.134 203.1 111.537 201.16 110.593 198.888C109.649 196.616 109.399 194.116 109.877 191.702C110.354 189.289 111.537 187.072 113.275 185.331C115.013 183.59 117.229 182.404 119.641 181.922C122.053 181.441 124.554 181.686 126.828 182.626C129.101 183.567 131.044 185.161 132.411 187.206C133.778 189.251 134.508 191.656 134.508 194.116C134.503 197.408 133.194 200.564 130.867 202.895C128.541 205.225 125.387 206.539 122.094 206.549ZM122.094 183.712C120.036 183.708 118.022 184.315 116.309 185.455C114.595 186.596 113.259 188.22 112.468 190.12C111.678 192.021 111.469 194.113 111.868 196.133C112.267 198.152 113.256 200.008 114.71 201.465C116.165 202.922 118.018 203.915 120.037 204.318C122.056 204.721 124.149 204.516 126.051 203.729C127.953 202.943 129.579 201.609 130.723 199.898C131.867 198.186 132.478 196.174 132.478 194.116C132.475 191.361 131.381 188.719 129.435 186.769C127.489 184.819 124.849 183.72 122.094 183.712Z" fill="#231F20"/>
<path d="M50.1004 199.739C48.9882 199.739 47.9011 199.409 46.9764 198.791C46.0517 198.173 45.3309 197.295 44.9053 196.267C44.4797 195.24 44.3684 194.109 44.5853 193.019C44.8023 191.928 45.3379 190.926 46.1243 190.139C46.9107 189.353 47.9126 188.817 49.0034 188.6C50.0942 188.384 51.2248 188.495 52.2523 188.92C53.2798 189.346 54.158 190.067 54.7758 190.992C55.3937 191.916 55.7235 193.003 55.7235 194.116C55.7208 195.606 55.1275 197.035 54.0736 198.089C53.0196 199.143 51.5909 199.736 50.1004 199.739ZM50.1004 190.522C49.3897 190.522 48.6951 190.733 48.1042 191.128C47.5133 191.523 47.0528 192.084 46.7808 192.741C46.5089 193.397 46.4377 194.12 46.5763 194.817C46.715 195.514 47.0572 196.154 47.5597 196.656C48.0622 197.159 48.7024 197.501 49.3994 197.64C50.0964 197.778 50.8189 197.707 51.4754 197.435C52.132 197.163 52.6931 196.703 53.0879 196.112C53.4828 195.521 53.6935 194.826 53.6935 194.116C53.6908 193.163 53.3114 192.251 52.6381 191.578C51.9649 190.905 51.0525 190.525 50.1004 190.522Z" fill="#231F20"/>
<path d="M50.1004 190.015C49.9743 190.013 49.8536 189.964 49.7616 189.878C49.6697 189.791 49.6132 189.674 49.6031 189.548C49.5961 189.482 49.6025 189.415 49.6218 189.351C49.6411 189.288 49.673 189.229 49.7156 189.177C49.7582 189.126 49.8106 189.084 49.8697 189.054C49.9289 189.023 49.9935 189.005 50.0598 189L122.054 182.189C122.12 182.183 122.188 182.19 122.251 182.21C122.315 182.23 122.375 182.263 122.426 182.306C122.477 182.349 122.52 182.401 122.551 182.46C122.582 182.52 122.601 182.584 122.607 182.651C122.613 182.718 122.606 182.785 122.586 182.849C122.566 182.913 122.534 182.972 122.491 183.023C122.448 183.075 122.395 183.117 122.336 183.148C122.277 183.179 122.212 183.198 122.145 183.204L50.1512 190.015H50.1004Z" fill="#231F20"/>
<path d="M122.094 206.042L50.0598 199.231C49.9252 199.219 49.801 199.154 49.7143 199.05C49.6277 198.946 49.5859 198.813 49.598 198.678C49.6101 198.543 49.6752 198.419 49.7789 198.333C49.8827 198.246 50.0166 198.204 50.1512 198.216L122.145 205.027C122.212 205.033 122.277 205.053 122.336 205.084C122.395 205.116 122.447 205.159 122.49 205.211C122.532 205.263 122.564 205.322 122.583 205.387C122.603 205.451 122.609 205.518 122.602 205.585C122.592 205.712 122.533 205.829 122.439 205.914C122.345 205.999 122.221 206.045 122.094 206.042Z" fill="#231F20"/>
<path d="M73.6077 235.741L73.0393 243.729C73.0393 243.729 113.122 249.9 109.721 244.449C106.321 238.999 87.6045 233.782 87.6045 233.782L73.6077 235.741Z" fill="#231F20"/>
<path d="M102.708 247.119C92.5579 247.119 75.5668 244.571 73.009 244.175C72.897 244.158 72.7954 244.099 72.7241 244.011C72.6528 243.923 72.6169 243.812 72.6233 243.698L73.2018 235.71C73.2014 235.599 73.2428 235.491 73.318 235.408C73.3931 235.325 73.4966 235.274 73.6078 235.264L87.6047 233.305C87.6647 233.29 87.7274 233.29 87.7874 233.305C88.5588 233.518 106.707 238.633 110.117 244.175C110.282 244.388 110.377 244.646 110.39 244.915C110.403 245.184 110.332 245.45 110.188 245.678C109.529 246.743 106.626 247.119 102.708 247.119ZM73.5469 243.384C86.7419 245.414 107.874 247.647 109.458 245.251C109.458 245.19 109.579 245.058 109.366 244.713C106.22 239.638 89.0054 234.665 87.6047 234.259L74.0646 236.167L73.5469 243.384Z" fill="#231F20"/>
<path d="M74.8259 151.892C74.8259 151.892 65.6909 159.717 69.7509 189.447C73.8109 219.176 73.618 235.731 73.618 235.731L87.6149 233.772L93.847 150.745L74.8259 151.892Z" fill="white"/>
<path d="M73.6078 236.208C73.5465 236.206 73.486 236.193 73.4299 236.168C73.3738 236.144 73.323 236.108 73.2806 236.064C73.2382 236.019 73.2049 235.967 73.1827 235.91C73.1605 235.853 73.1497 235.792 73.1511 235.731C73.1511 235.568 73.2729 218.882 69.2839 189.528C65.2239 159.87 74.1052 151.861 74.4909 151.536C74.5643 151.465 74.6626 151.425 74.7649 151.425L93.8063 150.288C93.8716 150.282 93.9372 150.292 93.9986 150.314C94.06 150.337 94.1156 150.373 94.1616 150.42C94.207 150.469 94.242 150.526 94.2647 150.589C94.2874 150.652 94.2972 150.719 94.2935 150.785L88.0716 233.812C88.0618 233.917 88.0177 234.016 87.9461 234.093C87.8746 234.17 87.7795 234.221 87.6757 234.239L73.6789 236.198L73.6078 236.208ZM74.9882 152.338C73.9732 153.353 66.4825 162.082 70.1974 189.396C73.8108 215.908 74.0646 232.117 74.0747 235.203L87.1682 233.366L93.3293 151.242L74.9882 152.338Z" fill="#231F20"/>
<path d="M62.5749 111.921C62.5749 111.921 60.4129 114.479 60.9204 122.873C61.6715 134.616 63.8538 149.1 65.0921 156.53L96.6992 152.693L97.6634 127.998L119.74 130.313L127.86 106.968L102.556 100.725L62.5749 111.921Z" fill="#231F20"/>
<path d="M65.0919 156.977C64.9848 156.978 64.8807 156.941 64.7987 156.872C64.7168 156.803 64.6623 156.707 64.6453 156.601C63.884 151.993 61.3059 135.956 60.4736 122.903C59.9255 114.377 62.1382 111.738 62.2397 111.627C62.293 111.559 62.3685 111.512 62.4529 111.495L102.444 100.33C102.52 100.309 102.601 100.309 102.677 100.33L127.971 106.572C128.033 106.587 128.091 106.615 128.141 106.653C128.192 106.692 128.234 106.74 128.265 106.795C128.29 106.851 128.303 106.912 128.303 106.973C128.303 107.034 128.29 107.095 128.265 107.15L120.145 130.495C120.11 130.591 120.044 130.671 119.957 130.724C119.871 130.778 119.769 130.801 119.668 130.79L98.0692 128.516L97.1253 152.734C97.1257 152.84 97.0864 152.943 97.0151 153.022C96.9437 153.101 96.8454 153.15 96.7396 153.16L65.1223 157.007L65.0919 156.977ZM62.8487 112.317C62.4833 112.855 60.8999 115.646 61.3668 122.852C62.1788 135.489 64.6148 150.958 65.4268 156.043L96.2422 152.308L97.1862 127.948C97.1877 127.886 97.202 127.825 97.2282 127.769C97.2544 127.714 97.292 127.664 97.3384 127.623C97.3845 127.584 97.438 127.555 97.4955 127.538C97.5531 127.521 97.6136 127.515 97.6734 127.521L119.405 129.805L127.25 107.242L102.545 101.152L62.8487 112.317Z" fill="#231F20"/>
<path d="M105.956 217.603C105.727 217.601 105.505 217.523 105.327 217.379L95.9378 209.939C95.7265 209.772 95.5901 209.528 95.5587 209.261C95.5273 208.993 95.6034 208.725 95.7703 208.513C95.9372 208.302 96.1812 208.166 96.4487 208.134C96.7161 208.103 96.9851 208.179 97.1964 208.346L106.595 215.796C106.759 215.927 106.878 216.106 106.936 216.307C106.994 216.509 106.988 216.723 106.919 216.921C106.85 217.119 106.721 217.291 106.55 217.413C106.38 217.535 106.176 217.601 105.966 217.603H105.956Z" fill="#4B4D4F"/>
<path d="M147.622 178.769H147.51L130.306 176.82C130.173 176.805 130.044 176.763 129.926 176.698C129.809 176.633 129.706 176.545 129.622 176.44C129.539 176.335 129.477 176.214 129.44 176.085C129.403 175.956 129.392 175.821 129.408 175.688C129.423 175.555 129.464 175.426 129.529 175.309C129.595 175.191 129.682 175.088 129.787 175.005C129.892 174.921 130.013 174.859 130.142 174.822C130.271 174.786 130.406 174.775 130.539 174.79L147.703 176.749C147.836 176.756 147.967 176.79 148.087 176.847C148.207 176.905 148.315 176.986 148.404 177.086C148.493 177.185 148.562 177.301 148.606 177.427C148.65 177.553 148.669 177.686 148.662 177.82C148.655 177.953 148.621 178.083 148.563 178.204C148.506 178.324 148.425 178.432 148.325 178.521C148.226 178.61 148.11 178.679 147.984 178.723C147.858 178.767 147.725 178.786 147.591 178.779L147.622 178.769Z" fill="#4B4D4F"/>
<path d="M93.8469 40.3837L92.1316 50.3307C92.1316 50.3307 90.1016 54.6445 83.6766 51.9547C77.2517 49.265 77.0588 44.5148 77.0588 44.5148L80.926 26.0925C80.926 26.0925 85.5645 23.9407 85.869 12.999C85.869 12.999 95.6232 17.8406 105.712 18.206C105.712 18.206 103.875 30.386 102.221 35.3595C100.566 40.333 93.8469 40.3837 93.8469 40.3837Z" fill="white"/>
<path d="M87.5132 53.3554C86.1113 53.3262 84.7299 53.012 83.4532 52.4318C76.8354 49.6405 76.5208 44.7482 76.5107 44.5452C76.5052 44.5014 76.5052 44.4571 76.5107 44.4133L80.3778 25.991C80.3961 25.9105 80.4319 25.8351 80.4828 25.7702C80.5337 25.7053 80.5984 25.6524 80.6722 25.6155C80.6722 25.6155 85.0265 23.4028 85.3107 12.9889C85.3135 12.9005 85.3383 12.8143 85.3831 12.7382C85.4278 12.662 85.4909 12.5982 85.5667 12.5528C85.6425 12.5073 85.7284 12.4816 85.8167 12.478C85.905 12.4744 85.9927 12.493 86.072 12.5321C86.1735 12.5321 95.8464 17.3331 105.702 17.6782C105.85 17.6913 105.988 17.7603 106.088 17.871C106.134 17.9292 106.167 17.9961 106.186 18.0676C106.205 18.1392 106.21 18.2138 106.199 18.2872C106.118 18.7845 104.332 30.5179 102.698 35.5422C101.185 40.1503 95.8566 40.8201 94.263 40.9115L92.6187 50.4322C92.6245 50.4794 92.6245 50.5271 92.6187 50.5743C92.1002 51.4575 91.3511 52.183 90.4517 52.6729C89.5523 53.1628 88.5365 53.3987 87.5132 53.3554ZM77.5866 44.5554C77.6373 45.1136 78.2158 49.0721 83.8795 51.4675C89.3707 53.7817 91.3601 50.6555 91.6341 50.1581L93.3394 40.3025C93.3586 40.1814 93.4201 40.0711 93.5131 39.9912C93.606 39.9113 93.7243 39.8669 93.8469 39.8661C93.9078 39.8661 100.221 39.7849 101.723 35.1971C103.134 30.8935 104.768 21.1698 105.103 18.7033C96.8005 18.2669 88.7719 14.8971 86.3663 13.811C85.9197 23.0069 82.3672 25.8286 81.3928 26.4376L77.5866 44.5554Z" fill="#231F20"/>
<path d="M78.5611 21.667C78.0168 18.7415 78.2157 15.7261 79.1397 12.8974C79.6472 11.4967 80.0227 10.5426 81.5757 10.8674C83.1286 11.1922 84.6714 12.2377 86.4071 12.461C88.4371 12.7147 87.4221 14.1357 86.9958 15.577C86.5695 17.0183 86.0823 18.622 85.5342 20.1749C84.9861 21.7279 83.9812 25.5849 82.1035 26.2649C79.5761 27.2393 78.5611 21.667 78.5611 21.667Z" fill="white"/>
<path d="M81.5452 26.9348C81.1221 26.9321 80.7105 26.7973 80.3678 26.5491C78.8047 25.4631 78.1551 22.3369 78.0536 21.7583C77.4905 18.7414 77.6964 15.6311 78.6525 12.7147C79.16 11.3343 79.6675 9.9133 81.6975 10.3802C82.4406 10.5757 83.167 10.8302 83.8696 11.1414C84.6984 11.5309 85.5757 11.8074 86.4781 11.9636C86.7661 11.9655 87.0495 12.0355 87.3053 12.1678C87.561 12.3001 87.7819 12.491 87.9499 12.7248C88.086 13.0823 88.1403 13.4657 88.1087 13.8469C88.0771 14.2281 87.9604 14.5973 87.7672 14.9274C87.6758 15.1913 87.5743 15.4653 87.4931 15.7394C87.0364 17.3938 86.5593 18.9163 86.0315 20.3779L85.7575 21.1899C85.1079 23.1489 84.1233 26.1127 82.2862 26.7927C82.0495 26.8834 81.7986 26.9315 81.5452 26.9348ZM80.9667 11.3444C80.3374 11.3444 80.0938 11.8012 79.6269 13.0801C78.7375 15.8217 78.549 18.7425 79.0788 21.5756C79.2513 22.5196 79.9415 25.118 81.1088 25.7574C81.2379 25.829 81.3811 25.8715 81.5283 25.882C81.6756 25.8925 81.8234 25.8708 81.9614 25.8183C83.3316 25.3108 84.2451 22.5297 84.8034 20.8651C84.9049 20.5505 84.9962 20.2663 85.0876 20.0328C85.6052 18.5915 86.1026 17.0995 86.5289 15.4653C86.6101 15.171 86.7217 14.8665 86.8232 14.5823C87.0059 14.0951 87.2292 13.4861 87.0973 13.2729C87.0973 13.2729 86.9247 13.0801 86.3868 13.009C85.3926 12.8455 84.4259 12.5449 83.5143 12.1158C82.8561 11.8292 82.1776 11.5917 81.4843 11.4053C81.3147 11.3653 81.141 11.3448 80.9667 11.3444Z" fill="#231F20"/>
<path d="M84.1537 26.0823C84.08 25.1312 83.6988 24.2298 83.0676 23.5144C82.4458 22.8804 81.7218 22.3555 80.926 21.9614C80.5153 21.7 80.0499 21.5367 79.5659 21.4844C79.2188 21.4777 78.8738 21.5398 78.5509 21.6671C77.7635 21.9112 77.09 22.4299 76.6528 23.1287C76.3688 23.7163 76.2329 24.3644 76.257 25.0166C76.2206 25.722 76.2821 26.4291 76.4397 27.1176C76.6078 27.8044 76.9109 28.4508 77.3314 29.0192C77.7518 29.5876 78.2812 30.0667 78.8886 30.4285C79.496 30.7903 80.1694 31.0276 80.8694 31.1266C81.5694 31.2256 82.2822 31.1843 82.9661 31.0051" fill="white"/>
<path d="M81.6567 31.6647C80.3426 31.6671 79.0661 31.2267 78.033 30.4146C76.9999 29.6025 76.2705 28.466 75.9625 27.1885C75.7925 26.4536 75.7242 25.6989 75.7595 24.9454C75.7434 24.2079 75.9035 23.4772 76.2264 22.8139C76.7213 22.0173 77.4902 21.429 78.3884 21.1594C78.7695 21.0087 79.1762 20.9329 79.5861 20.9361C80.1518 20.9965 80.6965 21.1838 81.1796 21.4842C82.0272 21.8963 82.7965 22.4527 83.4532 23.1285C84.163 23.9277 84.594 24.9357 84.6814 26.001C84.6869 26.0698 84.6786 26.139 84.657 26.2046C84.6353 26.2702 84.6008 26.3307 84.5554 26.3828C84.51 26.4348 84.4546 26.4772 84.3926 26.5075C84.3306 26.5378 84.2631 26.5554 84.1942 26.5592C84.1259 26.5662 84.0569 26.5592 83.9914 26.5388C83.9258 26.5183 83.8652 26.4848 83.813 26.4402C83.7608 26.3956 83.7182 26.3409 83.6877 26.2793C83.6573 26.2178 83.6397 26.1507 83.6359 26.0822C83.5659 25.2437 83.2278 24.4501 82.6717 23.8187C82.079 23.2297 81.3931 22.7427 80.6417 22.3774C80.2986 22.163 79.9151 22.0214 79.515 21.9613C79.2395 21.9604 78.9667 22.0157 78.7132 22.1237C78.0585 22.3189 77.4918 22.735 77.1095 23.3011C76.8735 23.8164 76.7589 24.3789 76.7745 24.9454C76.7444 25.6065 76.8025 26.2687 76.9471 26.9145C77.0988 27.533 77.3718 28.1153 77.7502 28.6275C78.1287 29.1397 78.6051 29.5716 79.1517 29.8983C79.6984 30.225 80.3045 30.4399 80.9349 30.5306C81.5652 30.6212 82.2073 30.5858 82.8239 30.4264C82.8906 30.4084 82.9601 30.4037 83.0286 30.4126C83.097 30.4215 83.1631 30.4437 83.2229 30.4781C83.2828 30.5125 83.3352 30.5584 83.3774 30.6131C83.4195 30.6678 83.4504 30.7302 83.4684 30.7969C83.4864 30.8635 83.4911 30.933 83.4823 31.0015C83.4734 31.07 83.4511 31.136 83.4167 31.1959C83.3823 31.2557 83.3364 31.3082 83.2818 31.3503C83.2271 31.3924 83.1646 31.4234 83.098 31.4414C82.6293 31.578 82.1447 31.653 81.6567 31.6647Z" fill="#231F20"/>
<path d="M95.8667 25.0369C95.8667 25.0369 98.7087 30.7107 97.7546 31.5126C96.8005 32.3144 94.5574 31.4111 94.5574 31.4111" fill="white"/>
<path d="M96.5975 32.3449C95.8364 32.3159 95.0854 32.1616 94.3746 31.8881C94.2495 31.8383 94.1492 31.7408 94.0959 31.6171C94.0426 31.4934 94.0406 31.3535 94.0904 31.2284C94.1402 31.1032 94.2377 31.0029 94.3614 30.9496C94.4852 30.8963 94.625 30.8944 94.7502 30.9442C95.3896 31.1979 96.8918 31.5735 97.4298 31.1269C97.6835 30.6803 96.7497 27.9296 95.3998 25.2602C95.3686 25.2011 95.3496 25.1363 95.344 25.0698C95.3384 25.0032 95.3462 24.9362 95.367 24.8727C95.3879 24.8092 95.4213 24.7506 95.4653 24.7004C95.5093 24.6501 95.5629 24.6092 95.6231 24.5801C95.7429 24.5199 95.8817 24.5096 96.0092 24.5515C96.1366 24.5933 96.2423 24.6839 96.3031 24.8034C97.4298 27.0567 99.1553 30.9746 98.0692 31.9084C97.643 32.2178 97.1235 32.3719 96.5975 32.3449Z" fill="#231F20"/>
<path d="M95.5216 34.3443L91.0759 33.3293C91.0759 33.3293 89.8579 36.3743 92.0909 37.6634C94.3239 38.9524 95.5216 34.3443 95.5216 34.3443Z" fill="white"/>
<path d="M92.8014 38.3538C92.4439 38.3501 92.0938 38.252 91.7864 38.0696C89.7564 36.882 90.1319 34.3141 90.609 33.1062C90.6557 32.9967 90.7387 32.9065 90.8441 32.8511C90.9495 32.7956 91.0708 32.7782 91.1876 32.8017L95.6332 33.8167C95.7004 33.8316 95.7638 33.86 95.8196 33.9001C95.8755 33.9402 95.9225 33.9913 95.958 34.0502C95.9851 34.1126 95.9991 34.18 95.9991 34.2481C95.9991 34.3162 95.9851 34.3836 95.958 34.446C95.8667 34.7607 95.0445 37.5722 93.4408 38.2218C93.2374 38.3041 93.0208 38.3488 92.8014 38.3538ZM91.421 33.8979C91.1977 34.6896 90.9236 36.3948 92.304 37.1865C92.419 37.2685 92.5529 37.3199 92.6932 37.3359C92.8334 37.3519 92.9755 37.3319 93.1059 37.2779C93.8875 36.9632 94.5472 35.5625 94.8618 34.6795L91.421 33.8979Z" fill="#231F20"/>
<path d="M84.8236 20.7839L84.9961 19.8501H85.1991C85.798 19.8501 106.321 23.4939 107.529 23.971C107.607 23.9988 107.671 24.0552 107.709 24.1287C107.747 24.2023 107.755 24.2874 107.732 24.3668L107.58 25.1788C107.572 25.2526 107.543 25.3225 107.496 25.3802C107.449 25.4378 107.387 25.4806 107.316 25.5036C107.08 25.6018 106.881 25.7723 106.748 25.9908C106.646 26.1431 106.565 26.2953 106.484 26.4476C106.199 27.0363 105.936 27.625 105.641 28.2035C105.389 28.7505 105.001 29.224 104.514 29.5792C104.027 29.9344 103.458 30.1596 102.86 30.2335C101.952 30.3671 101.025 30.2622 100.17 29.929C99.527 29.7168 98.9431 29.355 98.4667 28.8733C97.9903 28.3916 97.635 27.8038 97.4299 27.1581C97.2061 26.5087 97.0463 25.839 96.9528 25.1585C96.9028 24.8565 96.8211 24.5605 96.7092 24.2755C96.6526 24.1598 96.5549 24.0693 96.4352 24.0217C96.228 23.9463 96.0138 23.8918 95.7957 23.8593C95.6954 23.836 95.5903 23.8451 95.4955 23.8852C95.4007 23.9253 95.321 23.9944 95.2679 24.0826C95.0964 24.3279 94.9437 24.5858 94.8112 24.854C94.48 25.6175 94.0004 26.3075 93.4003 26.884C92.7578 27.5958 91.8767 28.0472 90.9237 28.1528C90.5862 28.1862 90.2462 28.1862 89.9087 28.1528C88.8965 28.0852 87.9182 27.7603 87.0667 27.2088C86.5116 26.8886 86.1037 26.3641 85.9299 25.7472C85.6815 24.7731 85.5286 23.7771 85.4732 22.7733C85.4613 22.4114 85.3488 22.0599 85.1484 21.7583C84.9341 21.479 84.8198 21.1359 84.8236 20.7839Z" fill="#231F20"/>
<path d="M93.8469 40.3837C93.8469 40.3837 88.7109 39.3687 86.5896 37.5112C86.5896 37.5112 87.432 43.7738 92.6796 46.3519L93.8469 40.3837Z" fill="#231F20"/>
<path d="M92.7204 46.8594C92.6466 46.8734 92.5709 46.8734 92.4971 46.8594C87.0262 44.19 86.133 37.897 86.0924 37.6331C86.0744 37.53 86.0893 37.4239 86.135 37.3298C86.1807 37.2357 86.255 37.1584 86.3471 37.1089C86.4393 37.0594 86.5448 37.0403 86.6485 37.0542C86.7522 37.0682 86.8488 37.1144 86.9247 37.1865C88.9547 38.9424 93.8978 39.9371 93.9485 39.9473C94.0134 39.9594 94.0753 39.9843 94.1305 40.0206C94.1856 40.0569 94.233 40.1038 94.2699 40.1586C94.3067 40.2134 94.3323 40.275 94.3451 40.3398C94.3579 40.4046 94.3576 40.4713 94.3444 40.536L93.2177 46.4737C93.2023 46.55 93.1696 46.6217 93.1221 46.6833C93.0746 46.7449 93.0135 46.7947 92.9437 46.829C92.8732 46.8585 92.7962 46.869 92.7204 46.8594ZM87.3713 38.6785C88.0942 41.5293 89.8763 43.9975 92.355 45.5805L93.2583 40.7796C91.2097 40.3499 89.2291 39.643 87.3713 38.6785Z" fill="#231F20"/>
<path d="M85.1991 19.8298L77.4141 18.896V19.8298L86.5085 22.1338L85.1991 19.8298Z" fill="#231F20"/>
<path d="M78.8453 8.29956C78.297 10.2925 78.297 12.3966 78.8453 14.3896C80.9869 16.4196 98.0389 21.1901 106.677 22.1949C107.492 21.5305 108.055 20.606 108.27 19.5762L78.8453 8.29956Z" fill="white"/>
<path d="M106.676 22.7227H106.616C97.8459 21.7077 80.7635 16.8864 78.4899 14.7854C78.4135 14.7092 78.3576 14.6149 78.3275 14.5113C77.7444 12.4197 77.7444 10.2084 78.3275 8.1168C78.3496 8.05106 78.3854 7.99079 78.4327 7.94003C78.48 7.88927 78.5375 7.84918 78.6015 7.82245C78.7285 7.7711 78.8704 7.7711 78.9974 7.82245L108.432 19.1093C108.546 19.1522 108.642 19.2333 108.703 19.3387C108.764 19.4442 108.787 19.5675 108.767 19.6878C108.525 20.8464 107.89 21.886 106.971 22.6313C106.884 22.6909 106.782 22.7228 106.676 22.7227ZM79.2714 14.0952C81.6465 15.9222 97.7241 20.5912 106.463 21.6468C106.984 21.1724 107.372 20.5708 107.59 19.901L79.1699 8.9897C78.8593 10.6832 78.9112 12.4232 79.3222 14.0952H79.2714Z" fill="#231F20"/>
<mask id="path-47-inside-1_2_472" fill="white">
<path d="M108.27 19.5761C101.875 20.0461 95.4645 18.9049 89.6246 16.2571C83.9555 13.445 79.2938 8.94988 76.2773 3.38685C76.2773 3.38685 86.0315 -0.967497 95.5623 1.07265C107.275 3.61015 110.199 11.9636 108.27 19.5761Z"/>
</mask>
<path d="M108.27 19.5761C101.875 20.0461 95.4645 18.9049 89.6246 16.2571C83.9555 13.445 79.2938 8.94988 76.2773 3.38685C76.2773 3.38685 86.0315 -0.967497 95.5623 1.07265C107.275 3.61015 110.199 11.9636 108.27 19.5761Z" fill="white"/>
<path d="M108.27 19.5761L110.762 53.4847L135.209 51.688L141.229 27.9257L108.27 19.5761ZM89.6246 16.2571L74.5159 46.7157L75.0458 46.9785L75.5845 47.2228L89.6246 16.2571ZM76.2773 3.38685L62.4177 -27.6601L28.8833 -12.69L46.3885 19.5936L76.2773 3.38685ZM95.5623 1.07265L102.761 -32.1565L102.72 -32.1654L102.679 -32.1742L95.5623 1.07265ZM105.778 -14.3325C105.053 -14.2792 104.327 -14.4085 103.665 -14.7087L75.5845 47.2228C86.6024 52.2184 98.6971 54.3713 110.762 53.4847L105.778 -14.3325ZM104.733 -14.2016C105.342 -13.8997 105.842 -13.4171 106.166 -12.8199L46.3885 19.5936C52.7453 31.3169 62.5691 40.7896 74.5159 46.7157L104.733 -14.2016ZM76.2773 3.38685C90.137 34.4338 90.1289 34.4374 90.1208 34.441C90.1181 34.4422 90.11 34.4458 90.1047 34.4481C90.0941 34.4529 90.0836 34.4576 90.0732 34.4622C90.0524 34.4714 90.032 34.4804 90.0121 34.4892C89.9724 34.5067 89.9345 34.5233 89.8985 34.5391C89.8263 34.5705 89.7614 34.5985 89.7033 34.6232C89.5873 34.6726 89.4977 34.7094 89.4326 34.7357C89.3042 34.7875 89.2633 34.8011 89.294 34.7902C89.3801 34.7597 89.6357 34.6756 89.9555 34.6022C91.0585 34.3489 90.4214 34.7424 88.4456 34.3195L102.679 -32.1742C91.1725 -34.6373 80.8928 -33.0866 74.7361 -31.6728C71.426 -30.9127 68.6473 -30.0357 66.6067 -29.3135C65.5741 -28.948 64.6967 -28.6102 63.9976 -28.3282C63.6471 -28.1869 63.3387 -28.0585 63.0751 -27.9463C62.9433 -27.8902 62.8224 -27.838 62.7128 -27.7902C62.658 -27.7663 62.6059 -27.7435 62.5568 -27.7218C62.5322 -27.7109 62.5083 -27.7003 62.4851 -27.6901C62.4735 -27.6849 62.4621 -27.6798 62.4509 -27.6748C62.4453 -27.6723 62.4369 -27.6686 62.4341 -27.6674C62.4259 -27.6637 62.4177 -27.6601 76.2773 3.38685ZM88.3636 34.3018C86.9748 34.001 81.4736 32.0996 77.6464 25.5238C74.1521 19.5199 74.6165 13.9691 75.3113 11.2265L141.229 27.9257C143.852 17.5706 143.819 4.0368 136.417 -8.68134C128.682 -21.9714 115.863 -29.3182 102.761 -32.1565L88.3636 34.3018Z" fill="#6E8DFD" mask="url(#path-47-inside-1_2_472)"/>
<path d="M105.54 20.2156C99.9706 20.2352 94.464 19.0438 89.4011 16.724C83.6111 13.8812 78.858 9.29493 75.8103 3.61019C75.7829 3.54601 75.7688 3.47696 75.7688 3.40719C75.7688 3.33742 75.7829 3.26837 75.8103 3.20419C75.834 3.13932 75.8705 3.07986 75.9175 3.02931C75.9646 2.97876 76.0213 2.93814 76.0843 2.90984C76.4903 2.72714 86.1024 -1.49526 95.6535 0.565189C101.013 1.72229 105.073 4.24964 107.296 7.90364C108.328 9.67635 108.991 11.6394 109.246 13.6749C109.5 15.7104 109.341 17.7763 108.777 19.7487C108.753 19.8515 108.696 19.944 108.616 20.0131C108.536 20.0823 108.436 20.1247 108.331 20.1344C107.403 20.2125 106.471 20.2396 105.54 20.2156ZM77.0181 3.65079C79.9951 8.89096 84.4601 13.1299 89.8477 15.8308C95.4992 18.3517 101.678 19.4628 107.854 19.0686C108.804 15.4577 108.282 11.6171 106.402 8.39084C104.291 4.98044 100.586 2.68654 95.4099 1.57004C87.4219 -0.135161 79.1395 2.82864 77.0181 3.65079Z" fill="#231F20"/>
<path d="M104.86 16.4703C104.749 16.472 104.642 16.437 104.554 16.3709C104.465 16.3047 104.402 16.2112 104.372 16.1049C102.406 10.6934 98.3719 6.28352 93.1566 3.84368C93.0424 3.78346 92.9553 3.68192 92.9133 3.55976C92.8713 3.4376 92.8775 3.30401 92.9305 3.18623C92.9836 3.06846 93.0796 2.97535 93.1989 2.92588C93.3183 2.87642 93.452 2.87433 93.5728 2.92003C96.3015 4.16888 98.7505 5.95493 100.773 8.17146C102.796 10.388 104.352 12.9895 105.347 15.8207C105.382 15.9498 105.365 16.0875 105.301 16.2048C105.237 16.3222 105.129 16.41 105.002 16.45L104.86 16.4703Z" fill="#4B4D4F"/>
<path d="M97.9677 15.0086C97.8732 15.0122 97.7797 14.9882 97.6986 14.9395C97.6175 14.8908 97.5523 14.8196 97.511 14.7345C95.9472 12.127 93.8223 9.90054 91.2906 8.21684C88.7589 6.53314 85.884 5.43448 82.8747 5.00066C82.7425 4.97818 82.6243 4.90532 82.5448 4.79742C82.4653 4.68952 82.4307 4.55498 82.4484 4.42212C82.4583 4.3561 82.4811 4.29269 82.5156 4.23551C82.55 4.17834 82.5954 4.12853 82.6492 4.08893C82.7029 4.04932 82.764 4.02071 82.8288 4.00474C82.8936 3.98876 82.9609 3.98573 83.0269 3.99582C86.2044 4.42784 89.2416 5.57835 91.9079 7.35996C94.5742 9.14157 96.7993 11.5074 98.4143 14.2778C98.4455 14.3368 98.4645 14.4016 98.4701 14.4682C98.4757 14.5347 98.4679 14.6017 98.4471 14.6652C98.4262 14.7287 98.3928 14.7873 98.3488 14.8376C98.3048 14.8878 98.2512 14.9287 98.191 14.9578C98.1223 14.9939 98.0453 15.0113 97.9677 15.0086Z" fill="#4B4D4F"/>
<path d="M44.3758 76.609C44.2703 76.6052 44.1693 76.5657 44.0892 76.497C44.009 76.4284 43.9545 76.3346 43.9345 76.231C43.9145 76.1274 43.9302 76.0201 43.979 75.9265C44.0277 75.833 44.1068 75.7587 44.2032 75.7158L75.181 63.3125C75.2923 63.2804 75.4115 63.2907 75.5156 63.3416C75.6197 63.3924 75.7011 63.4801 75.7441 63.5877C75.7872 63.6952 75.7887 63.8149 75.7484 63.9235C75.7081 64.0321 75.6289 64.1218 75.5261 64.1753L44.5483 76.5684C44.4947 76.5952 44.4356 76.6091 44.3758 76.609Z" fill="#231F20"/>
<path d="M73.2322 220.039C73.1253 220.037 73.0225 219.997 72.9424 219.927C72.8623 219.856 72.8103 219.759 72.7957 219.653C72.7856 219.595 72.7875 219.535 72.8011 219.478C72.8147 219.42 72.8398 219.366 72.8749 219.319C72.91 219.271 72.9544 219.232 73.0053 219.202C73.0563 219.172 73.1127 219.153 73.1713 219.145L89.2895 216.72C89.4077 216.702 89.5282 216.731 89.625 216.802C89.7218 216.872 89.7872 216.977 89.8071 217.095C89.8157 217.154 89.8125 217.214 89.7976 217.271C89.7828 217.329 89.7567 217.383 89.7208 217.43C89.6848 217.477 89.6399 217.517 89.5885 217.546C89.5371 217.576 89.4803 217.595 89.4214 217.603L73.3032 220.039H73.2322Z" fill="#231F20"/>
<path d="M142.465 153.181C141.45 153.181 138.334 152.785 127.646 151.455C127.528 151.44 127.42 151.379 127.347 151.285C127.274 151.191 127.241 151.071 127.256 150.953C127.27 150.834 127.332 150.726 127.426 150.653C127.52 150.58 127.64 150.547 127.758 150.562C133.412 151.272 141.968 152.318 142.547 152.358C142.628 152.351 142.709 152.369 142.78 152.409C142.883 152.465 142.96 152.559 142.994 152.671C143.028 152.783 143.017 152.904 142.963 153.008C142.912 153.109 142.871 153.181 142.465 153.181Z" fill="#231F20"/>
<path d="M43.0867 12.4307L42.9751 16.3181C43.0185 16.6182 42.9588 16.9242 42.8058 17.186C42.6527 17.4478 42.4154 17.65 42.1326 17.7594L40.2955 18.7744C39.1139 19.5047 37.8668 20.1231 36.5704 20.6217C34.9032 21.203 33.1198 21.3702 31.3736 21.1089C31.1492 21.0974 30.9351 21.0117 30.7646 20.8653C30.6245 20.6677 30.5597 20.4265 30.5819 20.1853C30.5714 18.5217 30.8531 16.8692 31.4142 15.3031" fill="white"/>
<path d="M33.0079 21.738C32.4508 21.7378 31.8944 21.6971 31.3433 21.6162C31.1707 21.615 31.0004 21.577 30.8439 21.5045C30.6873 21.432 30.548 21.3269 30.4355 21.1961C30.323 21.0653 30.2398 20.9119 30.1915 20.7462C30.1433 20.5806 30.1311 20.4065 30.1557 20.2358C30.1379 18.5062 30.4301 16.7873 31.0185 15.1608C31.0618 15.0452 31.1491 14.9515 31.2613 14.9002C31.3735 14.8488 31.5015 14.844 31.6173 14.8867C31.6741 14.9071 31.7264 14.9386 31.771 14.9793C31.8156 15.02 31.8517 15.0691 31.8772 15.1239C31.9027 15.1786 31.917 15.2379 31.9195 15.2982C31.9219 15.3586 31.9123 15.4188 31.8914 15.4754C31.3425 16.9876 31.0708 18.5865 31.0895 20.1952C31.08 20.3225 31.0973 20.4505 31.1403 20.5707C31.2461 20.6302 31.3641 20.665 31.4854 20.6722C33.1567 20.9144 34.8617 20.7543 36.4589 20.2053C37.7308 19.7272 38.9543 19.129 40.1129 18.4189L41.95 17.4039C42.1367 17.3185 42.3029 17.1939 42.4372 17.0385C42.5348 16.8258 42.5767 16.5918 42.559 16.3585L42.6706 12.471C42.6784 12.3498 42.7321 12.2362 42.8207 12.1532C42.9093 12.0702 43.0263 12.0242 43.1477 12.0244C43.2094 12.0244 43.2705 12.0368 43.3273 12.061C43.3841 12.0852 43.4354 12.1207 43.4781 12.1653C43.5208 12.2099 43.554 12.2627 43.5757 12.3204C43.5974 12.3782 43.6072 12.4398 43.6045 12.5015L43.4827 16.3788C43.5032 16.7859 43.4082 17.1905 43.2086 17.546C43.0026 17.8274 42.7308 18.0539 42.4169 18.2058L40.5798 19.2208C39.359 19.972 38.067 20.601 36.7228 21.0985C35.5292 21.5188 34.2733 21.735 33.0079 21.738Z" fill="#231F20"/>
<path d="M97.6633 128.445H97.5821C97.524 128.435 97.4685 128.414 97.4186 128.383C97.3688 128.351 97.3257 128.31 97.2917 128.262C97.2577 128.214 97.2336 128.16 97.2208 128.102C97.2079 128.045 97.2065 127.985 97.2167 127.927C97.2167 127.806 99.2467 115.351 99.1249 107.688C99.1221 107.569 99.1663 107.453 99.2479 107.366C99.3295 107.278 99.442 107.227 99.5614 107.221C99.6216 107.217 99.6821 107.225 99.7388 107.246C99.7955 107.267 99.8472 107.299 99.8904 107.342C99.9336 107.384 99.9673 107.435 99.9893 107.491C100.011 107.547 100.021 107.608 100.018 107.668C100.181 115.423 98.1201 127.968 98.0998 128.08C98.0828 128.183 98.0294 128.276 97.9493 128.343C97.8692 128.41 97.7677 128.446 97.6633 128.445Z" fill="white"/>
<path d="M68.0152 153.252C67.9081 153.253 67.8041 153.216 67.7221 153.147C67.6401 153.078 67.5857 152.982 67.5686 152.876C67.5686 152.632 63.5086 128.516 65.4371 113.514C65.4445 113.456 65.4633 113.399 65.4925 113.348C65.5217 113.296 65.5608 113.251 65.6074 113.215C65.6541 113.179 65.7074 113.152 65.7644 113.136C65.8214 113.121 65.8809 113.116 65.9396 113.124C65.9982 113.131 66.0548 113.15 66.1062 113.179C66.1576 113.208 66.2027 113.247 66.239 113.294C66.2753 113.341 66.302 113.394 66.3177 113.451C66.3334 113.508 66.3377 113.567 66.3303 113.626C64.4729 128.526 68.3603 152.49 68.4517 152.734C68.4619 152.792 68.4605 152.851 68.4476 152.909C68.4348 152.966 68.4106 153.021 68.3767 153.069C68.3427 153.117 68.2996 153.158 68.2497 153.189C68.1999 153.221 68.1444 153.242 68.0863 153.252H68.0152Z" fill="white"/>
<path d="M124.358 109.333H124.236L105.966 104.095C105.91 104.08 105.857 104.054 105.811 104.018C105.765 103.982 105.726 103.937 105.698 103.886C105.669 103.834 105.652 103.778 105.645 103.72C105.639 103.662 105.645 103.603 105.662 103.547C105.677 103.489 105.703 103.435 105.74 103.388C105.776 103.34 105.822 103.301 105.874 103.272C105.926 103.242 105.984 103.224 106.043 103.217C106.102 103.21 106.163 103.215 106.22 103.232L124.49 108.47C124.605 108.503 124.703 108.58 124.761 108.684C124.82 108.789 124.836 108.912 124.804 109.028C124.771 109.119 124.71 109.197 124.63 109.251C124.55 109.306 124.455 109.334 124.358 109.333Z" fill="white"/>
<path d="M68.0152 122.294C67.9066 122.295 67.8013 122.257 67.7191 122.186C67.6369 122.115 67.5834 122.016 67.5686 121.909C67.5541 121.79 67.5862 121.671 67.6583 121.576C67.7303 121.482 67.8365 121.419 67.9543 121.401C68.2283 121.401 74.6533 120.386 76.7442 110.642C76.7686 110.526 76.8379 110.425 76.9368 110.36C77.0357 110.296 77.1563 110.273 77.272 110.297C77.3885 110.324 77.4898 110.395 77.5543 110.495C77.6188 110.596 77.6414 110.718 77.6171 110.835C75.3943 121.188 68.3705 122.254 68.0761 122.294H68.0152Z" fill="white"/>
</svg>
